<?xml version="1.0" encoding="UTF-8"?><svg id="Layer_1" xmlns="http://www.w3.org/2000/svg" viewBox="0 0 2000 2000"><defs><style>.cls-1{fill:#d0e2f9;}.cls-1,.cls-2,.cls-3,.cls-4,.cls-5,.cls-6,.cls-7{stroke-width:0px;}.cls-2{fill:#bfd9b0;}.cls-3{fill:#fe3d3d;}.cls-4{fill:#1fbb00;}.cls-5{fill:#a1c4f3;}.cls-6{fill:#476e2c;}.cls-7{fill:#fefefe;}</style></defs><path class="cls-7" d="M1000,1999.91c-331.8,0-663.61,0-995.41.09-3.75,0-4.59-.84-4.59-4.59C.1,1331.8.1,668.2,0,4.59,0,.84.84,0,4.59,0c663.61.1,1327.21.1,1990.82,0,3.75,0,4.59.84,4.59,4.59-.1,663.61-.1,1327.21,0,1990.82,0,3.75-.84,4.59-4.59,4.59-331.8-.1-663.61-.09-995.41-.09ZM1076.97,747c1.04-.03,2.08-.06,3.11-.08,5.54,1.55,11.16,2.39,16.92,2.09-.72.34-1.41.84-2.17.98-11.06,2.07-22.23.53-33.34,1.03-1.67.08-3.54-.52-5.45,1.18,4.47,1.72,8.69,1.86,12.88,2.26-35.99,1.94-72.07.94-107.98,5.23,2.77,3.01,7.44-.3,11.46,3.59-4.4-.8-7.33.73-10.43.68-33.75-.64-67.41,1.51-101.09,3.01-10.62.47-21.23.16-31.88.74-14.08.77-28.23.91-42.34,1.2-16.12.34-32.21,1.69-48.35,1.19-3.42-.1-6.79,1.23-10.35,1.36,1.08.89,2.12,1.35,3.21,1.54,18.87,3.35,37.69,6.94,56.62,9.9,17.08,2.68,33.91,6.19,51.68,4.51,18.48-1.75,37.34-1.47,55.99,4.33-12.22,3.13-24.59-.68-37.14,2.85,4.84,1.42,8.87,2.59,13.08,3.82-1.43,1.45-2.89,1.61-4.42,1.59-24.1-.25-48.15,1-72.22,1.91-15.41.58-30.82,1.34-46.23,1.9-15.59.57-31.16,1.18-46.73,2.06-14.92.84-29.9.85-44.85,1.23-1.44-.24-2.91-.4-4.33-.74-9.18-2.2-18.13-5.42-27.6-6.34-1.49-1.62-3.44-.9-5.19-.96-17.12-.57-34.06,2.57-51.11,2.82-21.92.32-43.81.67-65.71,1.97-17.71,1.05-35.48,1.36-53.23,1.98-19.24.67-38.48,1.35-57.72,2.02-17.75.62-35.49,1.08-53.23,2.03-11.6.62-23.27-.22-34.85,1.24-1.67-.73-3.37-1.41-5.02-2.18-11.74-5.49-23.12-11.77-34.88-17.12-12.78-5.81-25.32-12.16-38.32-17.49-1.78-.73-3.59-2.36-5.53-.74-1.76,1.47-1.64,3.87-1.04,5.62,2.8,8.25,1.05,16.78,1.56,25.13,1.03,16.85,2.27,33.69,3.23,50.54,1.24,21.71,2.39,43.44,2.91,65.17.34,14.13,1.73,28.18,2.53,42.26.82,14.56,1.05,29.15,2.42,43.68-1.29.02-2.09.88-2.94,1.68-7.86,7.44-15.04,15.5-21.64,24.06-23.85,30.96-40.73,65.59-53.59,102.29-17.83,50.9-26.55,103.58-29.45,157.26-.9,16.59-.05,33.28,0,49.92-.04,21.16-.17,42.32-.09,63.48.04,9.84,1.36,19.58,3.51,29.2,7.92,35.46,26.47,65.09,50.53,91.61,31.58,34.8,69.46,61.49,110.07,84.55,60.02,34.09,123.94,58.9,189.82,78.89,101.45,30.78,205.29,49.36,310.63,60.21,58.54,6.03,117.22,9.41,176.03,10.51,55.33,1.03,110.62-.18,165.87-3.44,37.09-2.19,74.09-5.29,110.99-9.51,50.78-5.81,101.26-13.58,151.37-23.72,70.35-14.24,139.51-32.7,206.75-58.01,55.89-21.04,109.75-46.19,159.26-79.92,34.36-23.4,65.62-50.2,89.84-84.41,19.83-28.01,32.89-58.69,33.89-93.4.7-24.31.08-48.65.05-72.98.08-.82.23-1.65.23-2.47-.03-32.55-.11-65.08-2.89-97.58-1.14-13.34-1.93-26.76-3.45-40.05-1.88-16.38-4.07-32.75-6.57-49.07-4.37-28.59-9.9-56.93-16.8-84.99-10.38-42.23-23.53-83.54-40.96-123.46-14.33-32.84-31.23-64.2-52.08-93.36-2.56-3.58-4.62-7.71-8.51-10.23-5.64-9.31-13.35-16.88-20.82-24.65-19.13-19.89-40.72-36.41-66.4-46.98-11.36-4.68-23.03-8.58-35.49-9.2-.72-13.98.91-27.9,1.15-41.86.33-19.88,1.74-39.75,2.79-59.62.17-3.24-.6-4.38-4.23-4.87-9.15-1.25-18.27-.54-27.4-.74-22.1-.49-44.18.1-66.23,1.85-11.34-1.74-22.69-2.81-34.12-.86-1.96-1.24-4.15-1.03-6.31-1.02-19.29.03-38.57.43-57.86.8-33.64.66-67.3.19-100.95.2-1.63,0-3.26,0-5.21,0,1.62,2.45,3.75,1.96,5.65,1.96,29.29-.06,58.57,0,87.85,1.1,1.42.05,3.23-.7,4.74,2.09-5.8,0-10.93,0-16.05,0-2.12-.28-4.24-.72-6.37-.82-10.53-.49-21.07-1.55-31.54.63-9.63-2.18-19.47-.83-29.22-1.7-9.5-.85-19.19.44-28.8.79-4.95-1.82-9.86-.24-14.78.17-10.41-.41-20.81-.92-31.22-1.2-15.06-.4-30.01,1.63-45.04,2.09-6.51-1.25-13.08-2-19.72-2.01-41.69-.09-83.39.03-125.07-1.29-.06-.52-.11-1.04-.17-1.56,11.12-1.14,22.32-1.02,33.38-.24,7.88.56,12.41-2.93,16.27-8.45,13.21-18.91,27.03-37.37,39.67-56.71,11.59-17.71,22.83-35.65,33.25-54,10.06-17.69,19.37-35.91,27.63-54.59,8.34-18.88,16.19-37.93,21.86-57.83,2.64-9.27,4.94-18.59,6.83-28.05,1.96-9.87,3.14-19.87,2.63-29.8-.45-8.71-.14-17.45-1.24-26.19-.79-6.35-1.63-12.74-2.74-19-2.35-13.25-5.97-26.21-10.14-39.08-4.18-12.91-9.65-25.14-15.93-37.03-7.46-14.13-16.02-27.59-25.96-40.18-10.21-12.94-21.71-24.66-33.89-35.62-9.36-8.42-19.18-16.49-30.02-22.99-10.81-6.5-21.29-13.71-33.1-18.37-12.2-4.82-24.46-9.54-36.92-13.59-2.55-.83-4.57-2.87-7.09-2.97-3.94-.15-8.25-1.46-11.72-1.82-3.45-.36-7.32-2.91-9.36-2.25-5.72,1.85-10.35-2.63-15.61-1.26-6.07,1.58-11.45-2.53-17.88-1.51-11.71,1.85-23.7-.51-35.66,1.02-6.68.85-13.51,1.83-20.33,2.28-4.64.31-9.73,2.04-14.63,3.11-4.46.97-9.09,1.74-13.23,3.34-2.04.79-4.4-.55-5.95,1.41-1.86,2.34-4.5,2.3-7.21,2.71-4.86.74-10.05,2.55-13.85,4.76-6,3.48-12.77,5.34-18.44,9.38-1.41,1-4.14.26-5.4,1.33-10.01,8.48-22.13,13.78-32.41,21.88-6.66,5.25-14.05,9.97-19.97,15.78-11.4,11.19-22.95,22.38-32.39,35.49-10.41,14.46-20.44,29.1-28.08,45.26-5.67,11.99-11.26,24.11-14.87,36.8-2.73,9.59-5.58,19.26-6.82,29.36-1.53,12.36-4.6,24.57-4.43,37.11.12,9.6-.69,19.18.76,28.83,2.13,14.16,4.91,28.1,9.02,41.84,2.42,8.11,4.83,16.34,7.87,24.11,3.72,9.53,8.06,18.96,12.04,28.43,5.42,12.92,11.61,25.52,18.15,37.77,11.64,21.8,24.02,43.26,37.34,64.13-3.03.51-5.93-.68-8.88-.78-17.24-.6-34.42-1.93-51.63-2.97-17.54-1.06-35.09-1.96-52.63-2.98-17.04-.99-34.09-2-51.13-3.02-17.7-1.05-35.42-2-53.13-2.98-16.88-.93-33.75-2.05-50.63-3.02-18.21-1.05-36.43-1.75-54.63-3.04-14.39-1.02-28.86-1.06-43.23-2.28-6.8-.58-13.59-.57-20.38-.99-15.04-.93-30.09-1.77-45.13-2.65-9.58.73-19.02,2.18-28.39,4.38-3.83.9-4.78,2.59-4.55,6.14.75,11.43,1.64,22.87,1.88,34.31.36,16.58,1.11,33.14,1.89,49.71.97,20.58,2.05,41.15,3.16,61.72.93,17.26,1.57,34.55,2.13,51.83.1,3.21,1.38,3.98,4.22,3.9,5-.15,10.01.14,14.99-.2,4.25-.29,8.66,1.18,12.76-1.01,6.56,1.44,13.22.91,19.84,1.1,4.72.14,9.08-1.97,13.73-2,19.62-.09,39.25.29,58.84-1.03,23.39-1.58,46.67,4.1,70.07.97,1.68-.22,3.63.75,5.35-1.31-2.42-.79-4.62-1.5-7.94-2.58,8.18-.26,15.13-.52,22.07-.91,17.74-.99,35.53-.14,53.33-.94,23.37-1.04,46.8-.34,70.2-2.05,15.04-1.1,30.21,0,45.33-1.11,12.08-.89,24.23-.44,36.34-.79,27.22-.78,54.46-1.35,81.69-2.25,11.77-.39,23.41,2.38,35.21,1.86h22.22c-4.49-1.76-8.15-1.24-11.19-3.07.74-.28,1.48-.77,2.24-.8,9.04-.38,18.09-.78,27.14-.99,7.59-.18,15.19-.12,22.79-.17,2,.78,4.03,1.11,6.22,1.13,8.11.06,16.13-1.47,24.27-1.13,7.3.31,14.63-.07,21.94-.14,1.3.77,2.64,1.15,4.2,1.27,7.21.57,14.42,1.27,21.62,2.03,10.8,1.15,21.56,2.7,32.44,2.91ZM335.93,767.33c-5.76-3.63-11.14-4.44-16.11-6.2-1.33-.47-3.67-.88-3.72,1.75-.04,2.08,0,4.85,2.81,5.02,5.16.31,10.39.64,17.02-.57Z"/><path class="cls-2" d="M124.24,1341.18c-.05-16.64-.9-33.33,0-49.92,2.9-53.67,11.61-106.35,29.45-157.26,12.86-36.7,29.74-71.34,53.59-102.29,6.6-8.56,13.78-16.62,21.64-24.06.85-.81,1.65-1.66,2.94-1.69.4,11.79.81,23.57,1.17,35.36.11,3.53.72,6.93,2.22,10.13,9.1,19.39,16.28,39.57,24.51,59.31,12.97,31.1,23.63,63.08,35.46,94.62,3.32,8.84,5.23,18.11,9.04,26.71,1.43,3.22,3.57,5.89,3.01,9.85-.31,2.17.71,4.67,3.74,5-2.49,3.29.32,5.9,1.21,8.69,2.9,9.11,5.9,18.18,9.01,27.22,1.52,4.41,6.2,6.84,9.89,4.62,3.51-2.11,7.34-3.01,11.01-4.46,19.16-7.57,39.18-11.88,59.47-14.95,8.83-1.34,17.8-1.86,26.59-3.39,20.9-3.64,42.04-5.08,63.06-7.61,16.1-1.94,32.29-3.16,48.36-5.31,15.96-2.14,31.92-3.8,48.03-3.74,16.28.06,32.46-1.02,48.48-4.11,1.33,1.24,2.84,2.33,3.95,3.73,7.6,9.55,15.19,19.11,22.64,28.78,2.25,2.92,4.26,5.91,8.27,6.48,19.14-2.66,38.29-5.28,57.43-8,16.17-2.3,32.4-4.32,48.47-7.18,22.36-3.98,44.27-10.03,66.21-15.86,11.6-3.08,23.38-5.03,35.43-3.51,4.99.63,6.4-.17,6.45-5.19.07-7,.03-13.99,0-20.99,0-2.07-.09-4.22,2.67-4.48,5.47-.51,10.35-3.81,15.86-3.62,4.04.14,4.63-1.59,4.56-5.05-.72-33.27.68-66.55-.85-99.84-.97-21.11-.12-42.31-.26-63.46-.03-4.23,1.99-6.18,5.8-6.57,2.85-.29,5.39-1.38,8.07-2.18,7.41-2.21,14.67-5.19,22.45-5.84,10.74-.89,21.39-2.09,31.91-4.56,11.95-2.81,10.79-1.18,10.81-13.36.02-10.32.05-10.15,9.84-12.68,23.43-6.05,47.45-7.04,71.42-8.47,7.6-.45,10.01-2.95,8.84-10.48-1.01-6.51.67-8.24,7.36-8.63,6.76-.39,13.48-1.44,20.24-1.85,4.17-.25,5.38-2.32,5.35-6.12-.09-9.66,0-19.32.01-28.99,10.39,6.93,21.33,8.42,32.52,2.41,14.49-7.79,19.45-24.9,11.98-40.07-9.51-19.32-26.65-29.96-44.85-39.38.13-3.29.26-6.58.38-9.87,2.98,1.79,6.03,3.48,8.93,5.39,20.6,13.62,39.46,29.58,59.23,44.31,13.91,10.37,28.55,19.3,45.68,23.36.2,1.43.95,1.79,2.41,1.7,22.21-1.31,44.42-2.54,66.63-3.82,1.75-.1,3.69.58,5.15-1.04,5.32,1.49,10.25,4.2,15.79,5,.8,1.09,1.98,1.18,3.14,1.02,12.42-1.7,24.97-1.92,37.39-3.28,5.54-.61,11.29.42,16.66-1.74.93.33,1.87.66,2.8,1,11.06,4.05,22.13,8.08,34,9.09,19.74-.28,39.28-3.38,58.99-4.03,2.31-.08,3.8-1.44,4.02-3.69.64-6.58,2.17-13,2.21-19.71.07-13.94-.06-27.88.6-41.85.83-17.4,1.95-34.84,1.33-52.31-.24-6.89.49-7.22,7.34-7.5,5.56-.23,11.23,1.23,16.67-.95,4.46,1.28,8.41,3.66,12.35,6.01,6.2,3.69,12.28,7.6,19.47,9.14,1.48,3.26,4.52,2.85,7.22,2.87,10.09.07,20.16-.17,30.26-.86,18.04-1.23,35.95,2.7,54.02,1.93,5.88-.25,8.31-2.15,7.5-7.74-.63-4.36.22-8.48.37-12.7,3.35,4.92,3.69,10.61,2.45,15.95-2.17,9.33-5.09,18.51-8.05,27.63-4.4,13.55-9.34,26.92-14.49,40.22-7.26,18.73-15.12,37.21-23.75,55.32-25.67,53.83-57.25,104.09-93.24,151.57-82.4,108.69-182.18,199.17-292.54,278.49-22.15,15.92-44.39,31.71-66.89,47.13-26.37,18.07-53.51,34.97-80.85,51.54-117.63,71.3-240.68,131.86-367.43,185.07-1.58.66-3.69.61-4.45,2.68-14.14-1-27.97-4.06-41.85-6.66-51.68-9.69-102.82-21.64-153.25-36.63-67.28-20-132.63-44.77-193.98-79.2-46.1-25.87-88.85-56.13-122.83-97.36-15.8-19.17-28.41-40.23-36.61-63.76-3.34-9.57-5.3-19.51-7.2-29.45ZM1266.13,1064.3c.24-4.38-1.04-9.37-2.66-14.29-6.72-20.41-13.79-40.64-26.4-58.41-4.33-6.1-6.8-13.35-11.26-19.43-10.05-13.69-26.84-17.48-40.62-9.14-13.41,8.12-17.93,24.81-10.59,39.88,2.84,5.83,6.02,11.51,9.25,17.14,3.9,6.78,8.91,13.06,11.84,20.21,4.48,10.89,8.97,21.84,12.04,33.31,4.14,15.5,18.01,24.54,33.24,22.3,14.94-2.2,25.24-14.77,25.15-31.57ZM1288.15,1222.88c.2-9.01-.51-17.94-1.32-26.91-1.32-14.74-1.48-29.59-2.92-44.32-1.21-12.39-8.4-20.95-20.18-24.91-11.43-3.84-21.69-1-30.31,7.38-7.99,7.76-9.15,17.8-8.89,28.17.6,24.62,4.13,49.09,3.52,73.77-.06,2.31.4,4.64.79,6.94,2.31,13.72,14.08,24.54,27.24,25.1,15.31.65,27.37-8.25,31.02-22.82,1.85-7.4.62-14.93,1.05-22.39Z"/><path class="cls-2" d="M1751.72,833c3.89,2.53,5.96,6.66,8.51,10.23,20.85,29.16,37.75,60.53,52.08,93.36,17.43,39.92,30.58,81.24,40.96,123.46,6.9,28.06,12.43,56.4,16.8,84.99,2.49,16.33,4.69,32.69,6.57,49.07,1.52,13.29,2.31,26.71,3.45,40.05,2.78,32.5,2.86,65.03,2.89,97.58,0,.82-.15,1.65-.23,2.47-.21.62-.56,1.22-.62,1.85-2.07,23.62-9.9,45.38-21.48,65.87-19.18,33.94-46.14,60.95-76.53,84.72-44.78,35.02-94.66,61.17-146.79,83.24-78.51,33.24-160.2,55.95-243.59,72.87-74.74,15.16-150.23,25-226.24,30.94-43,3.36-86.08,5.14-129.19,5.96-34.31.65-68.63.31-102.93-.92-6.21-.22-12.59.49-18.66-1.66,1.67-.72,3.39-1.35,5.01-2.19,23.22-11.98,46.56-23.74,69.61-36.04,111.86-59.68,219.19-126.5,319.72-203.94,90.15-69.44,173.52-146,245.78-234.26,23.36-28.53,45.68-57.8,66.25-88.39,48.57-72.21,87.47-149.21,114.37-232.09,5.07-15.62,9.52-31.45,14.26-47.18Z"/><path class="cls-3" d="M1018.71,740.79c-7.31.07-14.64.45-21.94.14-8.15-.34-16.16,1.18-24.27,1.13-2.19-.01-4.22-.35-6.22-1.13-.47-1.19-1.91-.58-2.51-1.26-7.17-7.98-16.09-13.98-23.83-21.34-15.63-14.86-29.61-31.23-44.03-47.21-5.22-5.78-10.33-11.69-15.07-17.86-6.45-8.39-12.16-17.37-18.84-25.56-6.87-8.43-12.84-17.47-19.05-26.34-7.03-10.04-13.76-20.29-20.63-30.45-13.32-20.87-25.7-42.33-37.34-64.13-6.54-12.25-12.73-24.85-18.15-37.77-3.97-9.48-8.32-18.9-12.04-28.43-3.03-7.77-5.44-16-7.87-24.11-4.11-13.73-6.89-27.68-9.02-41.84-1.45-9.64-.64-19.23-.76-28.83-.16-12.54,2.91-24.74,4.43-37.11,1.25-10.1,4.1-19.77,6.82-29.36,3.61-12.69,9.2-24.81,14.87-36.8,7.64-16.16,17.68-30.8,28.08-45.26,9.44-13.12,21-24.31,32.39-35.49,5.92-5.81,13.31-10.52,19.97-15.78,10.28-8.11,22.41-13.4,32.41-21.88,1.26-1.07,3.99-.33,5.4-1.33,5.67-4.04,12.44-5.91,18.44-9.38,3.81-2.21,8.99-4.02,13.85-4.76,2.71-.41,5.35-.37,7.21-2.71,1.56-1.96,3.91-.63,5.95-1.41,4.14-1.6,8.77-2.37,13.23-3.34,4.9-1.07,10-2.8,14.63-3.11,6.82-.45,13.65-1.43,20.33-2.28,11.96-1.53,23.95.83,35.66-1.02,6.43-1.02,11.81,3.09,17.88,1.51,5.26-1.37,9.88,3.11,15.61,1.26,2.04-.66,5.9,1.89,9.36,2.25,3.46.36,7.78,1.66,11.72,1.82,2.52.1,4.54,2.14,7.09,2.97,12.46,4.05,24.72,8.77,36.92,13.59,11.81,4.66,22.29,11.88,33.1,18.37,10.84,6.51,20.66,14.58,30.02,22.99,12.19,10.96,23.68,22.69,33.89,35.62,9.94,12.59,18.5,26.05,25.96,40.18,6.28,11.89,11.75,24.12,15.93,37.03,4.17,12.87,7.79,25.82,10.14,39.08,1.11,6.26,1.95,12.65,2.74,19,1.09,8.74.79,17.48,1.24,26.19.51,9.92-.66,19.93-2.63,29.8-1.88,9.46-4.18,18.78-6.83,28.05-5.67,19.89-13.52,38.95-21.86,57.83-8.26,18.68-17.57,36.89-27.63,54.59-10.43,18.34-21.67,36.28-33.25,54-12.65,19.33-26.46,37.8-39.67,56.71-3.86,5.52-8.39,9.01-16.27,8.45-11.05-.78-22.26-.91-33.37.23-2.18.1-4.36.19-6.54.29-8.43-.14-16.87-.9-25.28.43l-.15.08c-6.25.75-12.45.89-18.66-.61-1.68-.41-3.62.06-5.41.33-3.62.54-5.53,2.87-5.92,6.37-.44,3.94-.94,7.91-.96,11.87-.09,23.48-.05,46.96-.02,70.44,0,1.79-.49,3.69.74,5.32ZM999.88,484.27c69.52.31,126.8-56.26,126.78-126.75-.02-70.43-57.38-126.49-126.91-126.77-69.32-.28-127.43,58.14-126.98,127.64.44,68.31,57.64,126.76,127.11,125.88Z"/><path class="cls-1" d="M1109.07,849.07c-.13,3.29-.26,6.58-.38,9.87.01,11.27,0,22.54.05,33.81.07,14.41.2,28.82.31,43.24-.02,9.66-.1,19.33-.01,28.99.04,3.8-1.17,5.87-5.35,6.12-6.76.41-13.48,1.46-20.24,1.85-6.69.38-8.37,2.11-7.36,8.63,1.17,7.53-1.24,10.03-8.84,10.48-23.96,1.42-47.98,2.42-71.42,8.47-9.79,2.53-9.82,2.36-9.84,12.68-.02,12.18,1.14,10.55-10.81,13.36-10.53,2.47-21.18,3.67-31.91,4.56-7.78.64-15.05,3.63-22.45,5.84-2.68.8-5.22,1.89-8.07,2.18-3.8.39-5.83,2.33-5.8,6.57.13,21.16-.72,42.35.26,63.46,1.53,33.29.13,66.57.85,99.84.07,3.46-.52,5.19-4.56,5.05-5.51-.19-10.39,3.11-15.86,3.62-2.76.26-2.68,2.41-2.67,4.48.03,7,.07,13.99,0,20.99-.05,5.02-1.45,5.83-6.45,5.19-12.04-1.52-23.82.43-35.43,3.51-21.94,5.82-43.85,11.88-66.21,15.86-16.07,2.86-32.3,4.88-48.47,7.18-19.13,2.72-38.28,5.34-57.43,8-1.15-9.22-1.84-18.45-1.98-27.76-.19-12.13-.13-24.25-.64-36.39-.6-14.26-1.25-28.56-1.39-42.86-.1-9.96-.51-19.95-.62-29.88-.3-24.61-1.29-49.18-2.27-73.76-.54-13.45-.24-26.91-.75-40.39-.88-23.57-1.02-47.18-2.21-70.75-.68-13.44.28-26.91-.88-40.39-1.12-13.06.08-26.23-1.04-39.38-1.06-12.57.07-25.23-.94-37.88-.96-12.06.17-24.27-1.29-36.36,14.95-.38,29.92-.39,44.85-1.23,15.57-.88,31.14-1.49,46.73-2.06,15.41-.56,30.81-1.31,46.23-1.9,24.07-.91,48.12-2.16,72.22-1.91,1.53.02,2.99-.14,4.42-1.59-4.21-1.23-8.24-2.41-13.08-3.82,12.56-3.53,24.92.28,37.14-2.85-18.65-5.8-37.52-6.07-55.99-4.33-17.77,1.68-34.59-1.84-51.68-4.51-18.93-2.96-37.75-6.55-56.62-9.9-1.09-.19-2.13-.65-3.21-1.54,3.56-.13,6.93-1.46,10.35-1.36,16.14.49,32.24-.85,48.35-1.19,14.12-.3,28.27-.44,42.34-1.2,10.64-.58,21.26-.26,31.88-.74,33.68-1.5,67.34-3.64,101.09-3.01,3.1.06,6.03-1.47,10.43-.68-4.02-3.9-8.69-.59-11.46-3.59,35.91-4.29,71.99-3.29,107.98-5.23-4.2-.39-8.41-.54-12.88-2.26,1.91-1.71,3.78-1.11,5.45-1.18,11.11-.5,22.28,1.04,33.34-1.03.76-.14,1.45-.65,2.17-.98,8.87.25,10.95,2.31,10.95,10.91,0,27.63,0,55.26,0,82.89,0,2.15-.29,4.35,1.11,6.26Z"/><path class="cls-4" d="M1751.72,833c-4.74,15.73-9.19,31.56-14.26,47.18-26.9,82.88-65.8,159.88-114.37,232.09-20.58,30.59-42.89,59.86-66.25,88.39-72.26,88.26-155.63,164.82-245.78,234.26-100.53,77.44-207.86,144.25-319.72,203.94-23.05,12.3-46.39,24.06-69.61,36.04-1.62.83-3.34,1.46-5.01,2.19-17.78.35-35.49-1.44-53.22-2.4-6.23-.34-12.55-.46-18.82-1.35-8.34-1.18-16.87-2.02-25.26-1.7-10.34.4-20.38-1.47-30.53-2.37-8.35-.74-16.62-2.36-24.96-3.29-11.18-1.25-22.33-2.66-33.6-3.37-11.3-.71-22.57-2.73-33.72-4.83-5.56-1.05-11.55-.35-16.66-3.55.76-2.07,2.87-2.02,4.45-2.68,126.75-53.2,249.8-113.76,367.43-185.07,27.34-16.57,54.48-33.46,80.85-51.54,22.5-15.42,44.74-31.21,66.89-47.13,110.37-79.32,210.14-169.8,292.54-278.49,36-47.48,67.58-97.74,93.24-151.57,8.63-18.11,16.49-36.59,23.75-55.32,5.16-13.3,10.09-26.67,14.49-40.22,2.96-9.12,5.88-18.3,8.05-27.63,1.24-5.34.9-11.03-2.45-15.95-.07-15.49-.14-30.99-.21-46.48,12.46.63,24.14,4.52,35.49,9.2,25.68,10.58,47.26,27.1,66.4,46.98,7.47,7.76,15.18,15.34,20.82,24.65Z"/><path class="cls-1" d="M636.11,1243.91c-16.01,3.09-32.2,4.17-48.48,4.11-16.11-.06-32.07,1.6-48.03,3.74-16.07,2.15-32.26,3.36-48.36,5.31-21.02,2.54-42.16,3.98-63.06,7.61-8.79,1.53-17.76,2.06-26.59,3.39-20.29,3.07-40.31,7.38-59.47,14.95-3.67,1.45-7.5,2.35-11.01,4.46-3.69,2.22-8.38-.21-9.89-4.62-3.11-9.04-6.11-18.11-9.01-27.22-.89-2.78-3.7-5.4-1.21-8.69.04-.5-.09-1.3.16-1.44,1.73-1.01,1.1.92,1.19,1.27,2.59,9.66,6.6,18.79,10.68,27.87.95,2.12.62,6.65,3.92,5.73,2.79-.78.15-4.32.13-6.64-.18-19.59-2.13-39.08-2.89-58.63-.55-14.26-1.04-28.51-2.02-42.75-1.29-18.69-2.5-37.4-2.97-56.13-.51-20.41-1.82-40.76-3.06-61.13-1.24-20.53-2.29-41.08-2.97-61.63-.44-13.1-1.07-26.18-2-39.25-1.1-15.39-1.11-30.83-1.95-46.25-.72-13.24-1.47-26.5-1.96-39.75-.71-19.07-1.95-38.09-3.27-57.11,11.58-1.45,23.25-.62,34.85-1.24,17.74-.95,35.48-1.41,53.23-2.03,19.24-.67,38.48-1.35,57.72-2.02,17.74-.62,35.51-.92,53.23-1.98,21.9-1.3,43.79-1.65,65.71-1.97,17.06-.25,33.99-3.39,51.11-2.82,1.76.06,3.71-.66,5.19.96.4,12.78.26,25.57.71,38.37.87,25.06,1.4,50.14,2.12,75.21.66,22.91,1.15,45.81,1.98,68.72.81,22.56,1.45,45.15,2,67.72.62,25.07,1.65,50.15,1.89,75.21.28,30.09,1.7,60.13,2.31,90.19.19,9.49.06,18.98.08,28.47Z"/><path class="cls-6" d="M679.96,1654.24c5.11,3.19,11.1,2.5,16.66,3.55,11.16,2.1,22.42,4.12,33.72,4.83,11.26.71,22.42,2.12,33.6,3.37,8.34.93,16.61,2.55,24.96,3.29,10.16.9,20.2,2.77,30.53,2.37,8.4-.33,16.92.52,25.26,1.7,6.27.89,12.59,1.01,18.82,1.35,17.73.96,35.43,2.75,53.22,2.4,6.07,2.15,12.45,1.44,18.66,1.67,34.3,1.23,68.61,1.56,102.93.92,43.11-.81,86.2-2.59,129.19-5.96,76-5.94,151.5-15.78,226.24-30.94,83.39-16.92,165.08-39.63,243.59-72.87,52.13-22.07,102.02-48.22,146.79-83.24,30.39-23.77,57.36-50.78,76.53-84.72,11.58-20.49,19.41-42.25,21.48-65.87.06-.63.4-1.23.62-1.85.03,24.33.65,48.67-.05,72.98-1.01,34.71-14.07,65.39-33.89,93.4-24.21,34.21-55.48,61.01-89.84,84.41-49.51,33.73-103.37,58.88-159.26,79.92-67.23,25.31-136.4,43.77-206.75,58.01-50.11,10.14-100.59,17.91-151.37,23.72-36.9,4.23-73.9,7.32-110.99,9.51-55.25,3.27-110.54,4.48-165.87,3.44-58.81-1.1-117.5-4.48-176.03-10.51-105.34-10.85-209.17-29.43-310.63-60.21-65.87-19.98-129.79-44.8-189.82-78.89-40.61-23.06-78.49-49.75-110.07-84.55-24.06-26.51-42.61-56.15-50.53-91.61-2.15-9.62-3.47-19.35-3.51-29.2-.09-21.16.04-42.32.09-63.48,1.9,9.94,3.86,19.88,7.2,29.45,8.21,23.53,20.81,44.58,36.61,63.76,33.98,41.23,76.73,71.49,122.83,97.36,61.35,34.43,126.7,59.2,193.98,79.2,50.42,14.99,101.57,26.94,153.25,36.63,13.87,2.6,27.7,5.66,41.85,6.66Z"/><path class="cls-1" d="M822.32,570.92c6.86,10.16,13.59,20.41,20.63,30.45,6.21,8.87,12.18,17.9,19.05,26.34,6.68,8.2,12.38,17.17,18.84,25.56,4.75,6.17,9.85,12.08,15.07,17.86,14.42,15.97,28.4,32.34,44.03,47.21,7.73,7.36,16.66,13.36,23.83,21.34.61.67,2.05.06,2.51,1.26-7.6.05-15.2-.01-22.79.17-9.05.21-18.09.61-27.14.99-.75.03-1.49.52-2.24.8-1.85.46-3.56,1.17-5.56.04-3.21-1.81-4.77-.01-5.47,3.03-11.8.51-23.44-2.25-35.21-1.86-27.23.9-54.46,1.46-81.69,2.25-12.12.35-24.27-.1-36.34.79-15.11,1.12-30.28.02-45.33,1.11-23.4,1.71-46.83,1.01-70.2,2.05-17.8.8-35.59-.06-53.33.94-6.94.39-13.9.64-22.07.91,3.32,1.08,5.52,1.8,7.94,2.58-1.72,2.06-3.67,1.09-5.35,1.31-23.4,3.12-46.68-2.55-70.07-.97-19.59,1.32-39.22.94-58.84,1.03-4.65.02-9.01,2.14-13.73,2-6.63-.2-13.29.34-19.84-1.1.28-14.11-1.33-28.13-1.88-42.2-.57-14.41-1.45-28.81-1.87-43.21-.74-25.37-2.2-50.7-2.98-76.05-.5-16.42-1.71-32.85-1.36-49.3,15.05.88,30.09,1.72,45.13,2.65,6.79.42,13.58.41,20.38.99,14.37,1.22,28.84,1.26,43.23,2.28,18.2,1.29,36.42,1.99,54.63,3.04,16.88.97,33.74,2.09,50.63,3.02,17.71.97,35.42,1.92,53.13,2.98,17.04,1.02,34.08,2.03,51.13,3.02,17.54,1.02,35.09,1.92,52.63,2.98,17.21,1.04,34.4,2.37,51.63,2.97,2.95.1,5.85,1.29,8.88.78Z"/><path class="cls-5" d="M303.99,811.11c1.32,19.02,2.56,38.05,3.27,57.11.49,13.25,1.24,26.51,1.96,39.75.84,15.42.85,30.86,1.95,46.25.94,13.08,1.57,26.15,2,39.25.68,20.55,1.73,41.1,2.97,61.63,1.23,20.37,2.55,40.71,3.06,61.13.47,18.72,1.68,37.44,2.97,56.13.98,14.24,1.47,28.49,2.02,42.75.76,19.55,2.72,39.05,2.89,58.63.02,2.32,2.66,5.86-.13,6.64-3.3.92-2.97-3.61-3.92-5.73-4.08-9.08-8.09-18.21-10.68-27.87-.09-.35.54-2.28-1.19-1.27-.25.15-.12.95-.16,1.44-3.04-.33-4.05-2.83-3.74-5,.57-3.96-1.58-6.63-3.01-9.85-3.81-8.6-5.73-17.87-9.04-26.71-11.82-31.54-22.49-63.52-35.46-94.62-8.23-19.75-15.41-39.93-24.51-59.31-1.5-3.2-2.11-6.6-2.22-10.13-.36-11.79-.78-23.57-1.17-35.36-1.38-14.53-1.6-29.12-2.43-43.68-.8-14.08-2.19-28.13-2.53-42.26-.53-21.74-1.68-43.46-2.91-65.17-.96-16.85-2.2-33.69-3.23-50.54-.51-8.35,1.24-16.88-1.56-25.13-.59-1.75-.71-4.15,1.04-5.62,1.94-1.62,3.75,0,5.53.74,13,5.33,25.55,11.68,38.32,17.49,11.76,5.35,23.15,11.62,34.88,17.12,1.65.77,3.35,1.46,5.02,2.18Z"/><path class="cls-5" d="M1109.07,849.07c-1.39-1.91-1.11-4.11-1.11-6.26,0-27.63,0-55.26,0-82.89,0-8.6-2.09-10.67-10.95-10.91-5.76.3-11.39-.54-16.92-2.09-.04-31.64-.07-63.28-.09-94.92,0-1.46-.32-3.05,1.1-4.15,41.68,1.32,83.37,1.2,125.07,1.29,6.64.01,13.21.76,19.72,2.01-.3,30.91.53,61.82-.68,92.75-1.37,35.04.41,70.14-1.01,105.23-.91,22.43-.15,44.92-.21,67.39,0,1.89.79,4.04-1.07,5.62-17.13-4.06-31.77-12.99-45.68-23.36-19.77-14.73-38.63-30.69-59.23-44.31-2.9-1.92-5.95-3.6-8.93-5.39Z"/><path class="cls-1" d="M1498.03,800.02c-5.44,2.19-11.11.72-16.67.95-6.84.29-7.58.61-7.34,7.5.61,17.47-.5,34.91-1.33,52.31-.67,13.97-.54,27.9-.6,41.85-.03,6.71-1.57,13.13-2.21,19.71-.22,2.25-1.71,3.61-4.02,3.69-19.71.65-39.26,3.76-58.99,4.03.36-2.95,1.02-5.91,1.02-8.86,0-22.43.08-44.87,1.09-67.28.44-9.61.44-19.25.68-28.85.54-21.9.85-43.79,2.19-65.67.97-15.9.06-31.86.83-47.82.98-20.08.19-40.25.16-60.39h16.05c-1.51-2.79-3.32-2.03-4.74-2.09-29.27-1.11-58.56-1.16-87.85-1.1-1.9,0-4.03.49-5.65-1.96,1.95,0,3.58,0,5.21,0,33.65,0,67.31.46,100.95-.2,19.29-.38,38.57-.77,57.86-.8,2.16,0,4.35-.22,6.31,1.02-.24,8.45-.18,16.88-.87,25.34-.94,11.56.05,23.18-.95,34.81-1.13,13.2-.95,26.51-1.18,39.78-.16,9.14.11,18.29-.12,27.43-.16,6.44-.53,12.91-1.44,19.28-.41,2.9-.32,5.18,1.61,7.33Z"/><path class="cls-1" d="M1222.9,922.13c1.87-1.58,1.07-3.73,1.07-5.62.06-22.47-.71-44.96.21-67.39,1.43-35.09-.36-70.18,1.01-105.23,1.21-30.93.38-61.83.68-92.75,15.02-.46,29.98-2.5,45.04-2.09,10.41.28,20.81.79,31.22,1.2-2.43,14.16-1.69,28.54-1.79,42.73-.28,37.6-1.69,75.19-1.46,112.8.08,12.78-.04,25.56-.64,38.37-1.16,24.9.53,49.89-1.16,74.82-1.46,1.62-3.4.94-5.15,1.04-22.21,1.28-44.42,2.51-66.63,3.82-1.46.09-2.21-.28-2.41-1.7Z"/><path class="cls-1" d="M1629.01,752.17c.07,15.49.14,30.99.21,46.48-.16,4.23-1,8.35-.37,12.7.81,5.59-1.62,7.49-7.5,7.74-18.07.77-35.98-3.16-54.02-1.93-10.09.69-20.16.93-30.26.86-2.7-.02-5.73.39-7.22-2.87,1.6-1.25,1.02-3.04,1.09-4.63.34-8.11.64-16.26.7-24.32.16-21.24,2.21-42.38,2.34-63.6.15-24.89.67-49.79,1.04-74.68,0-.33.05-.66.08-.99,22.04-1.76,44.12-2.35,66.23-1.85,9.13.2,18.25-.51,27.4.74,3.63.5,4.4,1.63,4.23,4.87-1.05,19.87-2.46,39.74-2.79,59.62-.23,13.96-1.86,27.88-1.15,41.86Z"/><path class="cls-1" d="M1370.06,919.98c-5.37,2.16-11.12,1.13-16.66,1.74-12.43,1.36-24.98,1.59-37.39,3.28-1.16.16-2.34.07-3.14-1.02.1-5.81.7-11.6.93-17.38.84-20.93-.29-41.88.94-62.86,1.31-22.4-.36-44.88,1.03-67.35,1.22-19.74-.01-39.55.92-59.35,1.05-22.27.23-44.63.22-66.95,9.61-.35,19.3-1.64,28.8-.79,9.74.87,19.59-.48,29.22,1.7.36,13.29-1.07,26.52-1.07,39.82-.01,20.92.28,41.84-.64,62.79-1.13,25.85-.03,51.77-2.07,77.65-1.25,15.87.16,31.85-.95,47.81-.95,13.57-.16,27.27-.13,40.91Z"/><path class="cls-5" d="M636.11,1243.91c-.02-9.49.11-18.99-.08-28.47-.6-30.07-2.02-60.1-2.31-90.19-.24-25.06-1.27-50.14-1.89-75.21-.56-22.57-1.19-45.16-2-67.72-.83-22.91-1.32-45.81-1.98-68.72-.72-25.07-1.24-50.15-2.12-75.21-.45-12.8-.31-25.58-.71-38.37,9.48.92,18.42,4.14,27.6,6.34,1.42.34,2.88.5,4.33.74,1.46,12.09.33,24.3,1.29,36.36,1.01,12.65-.12,25.31.94,37.88,1.11,13.14-.08,26.32,1.04,39.38,1.15,13.48.2,26.95.88,40.39,1.19,23.58,1.34,47.18,2.21,70.75.5,13.47.21,26.94.75,40.39.98,24.58,1.97,49.15,2.27,73.76.12,9.93.53,19.92.62,29.88.14,14.3.79,28.6,1.39,42.86.51,12.14.45,24.27.64,36.39.14,9.3.83,18.54,1.98,27.76-4.01-.57-6.02-3.56-8.27-6.48-7.45-9.67-15.03-19.23-22.64-28.78-1.12-1.4-2.63-2.49-3.95-3.73Z"/><path class="cls-5" d="M1370.06,919.98c-.02-13.64-.81-27.34.13-40.91,1.11-15.96-.3-31.94.95-47.81,2.04-25.88.94-51.79,2.07-77.65.92-20.95.63-41.87.64-62.79,0-13.3,1.44-26.53,1.07-39.82,10.47-2.18,21.02-1.12,31.54-.63,2.13.1,4.24.53,6.37.82.03,20.13.82,40.3-.16,60.39-.78,15.96.14,31.92-.83,47.82-1.33,21.88-1.65,43.77-2.19,65.67-.24,9.61-.24,19.24-.68,28.85-1.02,22.42-1.09,44.85-1.09,67.28,0,2.95-.66,5.91-1.02,8.86-11.88-1.01-22.94-5.04-34-9.09-.93-.34-1.87-.67-2.8-1Z"/><path class="cls-5" d="M390.93,546.21c-.35,16.45.86,32.87,1.36,49.3.77,25.35,2.24,50.68,2.98,76.05.42,14.4,1.29,28.8,1.87,43.21.56,14.07,2.17,28.09,1.88,42.2-4.1,2.19-8.51.72-12.76,1.01-4.98.34-10,.05-14.99.2-2.84.09-4.11-.69-4.22-3.9-.56-17.28-1.2-34.56-2.13-51.83-1.11-20.57-2.19-41.14-3.16-61.72-.78-16.57-1.53-33.12-1.89-49.71-.25-11.45-1.13-22.88-1.88-34.31-.23-3.54.72-5.24,4.55-6.14,9.37-2.2,18.82-3.65,28.39-4.38Z"/><path class="cls-5" d="M1018.71,740.79c-1.23-1.63-.74-3.53-.74-5.32-.03-23.48-.07-46.96.02-70.44.01-3.96.51-7.92.96-11.87.39-3.5,2.3-5.84,5.92-6.37,1.79-.27,3.73-.74,5.41-.33,6.21,1.51,12.41,1.37,18.66.61,1.37,1.38,3.13.88,4.74.9,5.99.06,12,.26,17.97-.03,3.99-.19,5.47.84,5.44,5.18-.19,31.29-.12,62.59-.13,93.88-10.88-.2-21.64-1.75-32.44-2.91-7.2-.77-14.4-1.47-21.62-2.03-1.56-.12-2.91-.5-4.2-1.27Z"/><path class="cls-5" d="M1535.1,646.93c-.03.33-.08.66-.08.99-.36,24.89-.89,49.79-1.04,74.68-.13,21.23-2.18,42.37-2.34,63.6-.06,8.06-.37,16.22-.7,24.32-.07,1.6.51,3.38-1.09,4.63-7.2-1.54-13.28-5.45-19.48-9.14-3.94-2.34-7.89-4.72-12.35-6.01-1.93-2.15-2.02-4.43-1.61-7.33.91-6.37,1.28-12.84,1.44-19.28.23-9.14-.04-18.29.12-27.43.23-13.27.05-26.58,1.18-39.78,1-11.63.01-23.25.95-34.81.69-8.46.63-16.89.87-25.34,11.43-1.95,22.78-.87,34.12.86Z"/><path class="cls-5" d="M1316.92,650.09c0,22.32.83,44.68-.22,66.95-.93,19.81.3,39.62-.92,59.35-1.39,22.47.28,44.95-1.03,67.35-1.23,20.97-.1,41.92-.94,62.86-.23,5.78-.84,11.57-.93,17.38-5.54-.8-10.47-3.52-15.79-5.01,1.68-24.93,0-49.91,1.16-74.82.6-12.81.72-25.59.64-38.37-.23-37.61,1.18-75.19,1.46-112.8.1-14.19-.64-28.57,1.79-42.73,4.93-.41,9.84-1.99,14.78-.17Z"/><path class="cls-1" d="M1076.97,747c.01-31.3-.06-62.59.13-93.88.03-4.33-1.45-5.37-5.44-5.18-5.98.29-11.98.09-17.97.03-1.61-.02-3.37.49-4.74-.9,0,0,.15-.08.15-.08,8.43-.24,16.87.45,25.28-.43,2.18-.1,4.36-.19,6.54-.29.06.52.11,1.04.17,1.56-1.42,1.1-1.1,2.68-1.1,4.15.02,31.64.06,63.28.09,94.92-1.04.03-2.07.06-3.11.08Z"/><path class="cls-5" d="M335.93,767.33c-6.63,1.21-11.85.88-17.02.57-2.82-.17-2.85-2.93-2.81-5.02.05-2.63,2.39-2.22,3.72-1.75,4.96,1.76,10.35,2.57,16.11,6.2Z"/><path class="cls-5" d="M903.08,745.95c.7-3.04,2.26-4.85,5.47-3.03,2,1.13,3.72.42,5.56-.04,3.03,1.83,6.7,1.31,11.19,3.07h-22.22Z"/><path class="cls-3" d="M1266.13,1064.3c.08,16.8-10.21,29.36-25.15,31.57-15.23,2.25-29.1-6.8-33.24-22.3-3.07-11.47-7.56-22.41-12.04-33.31-2.94-7.15-7.95-13.43-11.84-20.21-3.24-5.63-6.42-11.31-9.25-17.14-7.33-15.07-2.82-31.76,10.59-39.88,13.78-8.35,30.57-4.56,40.62,9.14,4.46,6.08,6.93,13.33,11.26,19.43,12.61,17.78,19.68,38.01,26.4,58.41,1.62,4.92,2.9,9.91,2.66,14.29Z"/><path class="cls-3" d="M1288.15,1222.88c-.43,7.46.8,14.98-1.05,22.39-3.65,14.57-15.7,23.47-31.02,22.82-13.16-.56-24.94-11.38-27.24-25.1-.39-2.29-.84-4.63-.79-6.94.6-24.68-2.92-49.16-3.52-73.77-.25-10.36.91-20.4,8.89-28.17,8.63-8.38,18.88-11.22,30.31-7.38,11.78,3.96,18.97,12.53,20.18,24.91,1.44,14.73,1.6,29.58,2.92,44.32.8,8.97,1.52,17.91,1.32,26.91Z"/><path class="cls-3" d="M1109.04,935.99c-.11-14.41-.24-28.82-.31-43.24-.06-11.27-.03-22.54-.05-33.81,18.2,9.42,35.35,20.06,44.85,39.38,7.47,15.17,2.51,32.28-11.98,40.07-11.19,6.02-22.13,4.52-32.52-2.41Z"/><path class="cls-7" d="M999.88,484.27c-69.48.88-126.67-57.57-127.11-125.88-.45-69.5,57.66-127.92,126.98-127.64,69.53.28,126.89,56.34,126.91,126.77.02,70.5-57.26,127.06-126.78,126.75Z"/><path class="cls-5" d="M1074.38,646.57c-8.42.87-16.86.19-25.28.43,8.41-1.32,16.85-.57,25.28-.43Z"/></svg>